<svg width="25" height="25" viewBox="0 0 256 256" xmlns="http://www.w3.org/2000/svg">
  <rect width="256" height="256" fill="#F7DF1E"/>
  <path d="M67.2 214.7L84 203.2C87.3 208.8 90.3 213.7 97.1 213.7C103.6 213.7 107.4 211 107.4 201.9V118.6H128.9V202.2C128.9 223.8 116.3 233.3 98.1 233.3C82.3 233.3 72.6 224.8 67.2 214.7ZM147.7 213.2L164.5 202.1C168.4 208.3 173.4 213.8 182.3 213.8C189.9 213.8 194.8 209.9 194.8 204.8C194.8 198.4 189.4 196.2 180.6 192.3L175.7 190.1C160.4 183.2 150.4 175.5 150.4 158.3C150.4 142.5 162.7 130.3 181.7 130.3C194.5 130.3 203.6 135.4 209.4 145.5L193.2 157.2C190.5 152.4 187.4 150.2 181.7 150.2C176 150.2 172.9 153.3 172.9 157.2C172.9 161.9 176 164.1 184.3 167.9L189.2 170.1C206.3 177.8 216.3 185.2 216.3 202.8C216.3 221.4 201.2 233.3 183 233.3C164.6 233.3 152.9 222.5 147.7 213.2Z" fill="#000"/>
</svg>
